<svg xmlns="http://www.w3.org/2000/svg" xmlns:xlink="http://www.w3.org/1999/xlink" width="1923" height="865" viewBox="0 0 1923 865">
  <defs>
    <clipPath id="clip-path">
      <rect id="Contain" width="1923" height="865" fill="#fff9f3"/>
    </clipPath>
    <linearGradient id="linear-gradient" x1="0.489" y1="1.031" x2="0.528" y2="-0.083" gradientUnits="objectBoundingBox">
      <stop offset="0.004" stop-color="#f05a28"/>
      <stop offset="1" stop-color="#faaf40"/>
    </linearGradient>
    <linearGradient id="linear-gradient-2" y1="0.5" x2="1" y2="0.5" gradientUnits="objectBoundingBox">
      <stop offset="0" stop-color="#7f4c84"/>
      <stop offset="1" stop-color="#73468c"/>
    </linearGradient>
    <linearGradient id="linear-gradient-8" y1="0.5" x2="1" y2="0.5" gradientUnits="objectBoundingBox">
      <stop offset="0" stop-color="#c46295"/>
      <stop offset="1" stop-color="#d04889"/>
    </linearGradient>
    <linearGradient id="linear-gradient-11" x1="-58.953" y1="-121.159" x2="-57.953" y2="-121.159" xlink:href="#linear-gradient-8"/>
    <linearGradient id="linear-gradient-12" x1="50.159" y1="-4.158" x2="50.959" y2="-3.642" gradientUnits="objectBoundingBox">
      <stop offset="0" stop-color="#009345"/>
      <stop offset="1" stop-color="#8bc53f"/>
    </linearGradient>
    <linearGradient id="linear-gradient-13" x1="40.11" y1="-43.304" x2="40.883" y2="-42.777" xlink:href="#linear-gradient-12"/>
    <linearGradient id="linear-gradient-14" x1="65.876" y1="9.242" x2="66.676" y2="9.757" xlink:href="#linear-gradient-2"/>
    <clipPath id="clip-path-2">
      <path id="Path_64" data-name="Path 64" d="M1114.571,586.2H996.653l6.26,202.239h100.465Z" fill="#77736f"/>
    </clipPath>
    <linearGradient id="linear-gradient-15" x1="0.859" y1="1" x2="0.373" y2="0.082" xlink:href="#linear-gradient"/>
    <linearGradient id="linear-gradient-16" x1="0.871" y1="0.983" x2="0.23" y2="0.115" xlink:href="#linear-gradient"/>
    <linearGradient id="linear-gradient-17" x1="1.085" y1="0.222" x2="-0.13" y2="0.795" xlink:href="#linear-gradient"/>
    <linearGradient id="linear-gradient-18" x1="1" y1="0.5" x2="0" y2="0.5" gradientUnits="objectBoundingBox">
      <stop offset="0" stop-color="#e59295"/>
      <stop offset="1" stop-color="#d04889"/>
    </linearGradient>
  </defs>
  <g id="Clip" clip-path="url(#clip-path)">
    <g id="Vector_Smart_Object" data-name="Vector Smart Object" transform="translate(124.248 -238.261)">
      <g id="Group_18" data-name="Group 18">
        <g id="Group_14" data-name="Group 14">
          <path id="Path_45" data-name="Path 45" d="M1428.218,1046.286c3.583-10.981,8.746-23.374,23.193-35.342,19.25-15.945,58.063-19.172,77.8-39.963,18.869-19.876,16.266-54.255,29.636-76.374,14.783-24.456,47.621-43.932,48.2-68.377.589-24.9-29.631-41.582-52.011-63.444-16.1-15.729-25.184-48.308-56.871-61.1-22.575-9.117-57.451,3.943-89.281-3.19-24.958-5.594-48.206-32.65-79.468-36.8-50.135-6.653-101.312,13.508-150.376,14.845-50.313,1.369-102.514-15.826-150.985-7.605-49.48,8.393-91.729,41.784-138.526,55.664-48.16,14.285-103.6,10.007-148.086,28.312-46.783,19.249-80.118,60.33-121.887,81.961-45.765,23.7-101.284,29.044-139.8,52.946-46.1,28.608-71.876,74.525-105.559,99.04-63.409,46.148-105.778,19.683-125.787,59.428Z" opacity="0.4" fill="url(#linear-gradient)"/>
        </g>
        <ellipse id="Ellipse_1" data-name="Ellipse 1" cx="9.848" cy="9.835" rx="9.848" ry="9.835" transform="translate(1142.348 445.26)" fill="url(#linear-gradient-2)"/>
        <ellipse id="Ellipse_2" data-name="Ellipse 2" cx="9.836" cy="9.848" rx="9.836" ry="9.848" transform="matrix(0.23, -0.973, 0.973, 0.229, 788.488, 696.441)" fill="url(#linear-gradient-2)"/>
        <circle id="Ellipse_3" data-name="Ellipse 3" cx="9.842" cy="9.842" r="9.842" transform="matrix(0.708, -0.707, 0.708, 0.707, 1507.674, 558.186)" fill="url(#linear-gradient-2)"/>
        <ellipse id="Ellipse_4" data-name="Ellipse 4" cx="9.836" cy="9.848" rx="9.836" ry="9.848" transform="matrix(0.23, -0.973, 0.973, 0.229, 962.802, 548.178)" fill="url(#linear-gradient-2)"/>
        <circle id="Ellipse_5" data-name="Ellipse 5" cx="9.842" cy="9.842" r="9.842" transform="matrix(0.708, -0.707, 0.708, 0.707, 1377.674, 840.543)" fill="#fff"/>
        <circle id="Ellipse_6" data-name="Ellipse 6" cx="9.842" cy="9.842" r="9.842" transform="matrix(0.708, -0.707, 0.708, 0.707, 1602.976, 914.806)" fill="url(#linear-gradient-2)"/>
        <ellipse id="Ellipse_7" data-name="Ellipse 7" cx="9.836" cy="9.848" rx="9.836" ry="9.848" transform="matrix(0.23, -0.973, 0.973, 0.229, 1484.168, 771.447)" fill="url(#linear-gradient-2)"/>
        <circle id="Ellipse_8" data-name="Ellipse 8" cx="9.842" cy="9.842" r="9.842" transform="matrix(0.708, -0.707, 0.708, 0.707, 909.418, 770.021)" fill="#fff"/>
        <rect id="Rectangle_1" data-name="Rectangle 1" width="19.697" height="19.67" transform="translate(1415.802 598.875)" fill="url(#linear-gradient-8)"/>
        <rect id="Rectangle_2" data-name="Rectangle 2" width="19.697" height="19.67" transform="translate(906.152 598.875)" fill="url(#linear-gradient-8)"/>
        <rect id="Rectangle_3" data-name="Rectangle 3" width="19.697" height="19.671" transform="translate(1371.905 729.491)" fill="url(#linear-gradient-8)"/>
        <rect id="Rectangle_4" data-name="Rectangle 4" width="19.679" height="19.688" transform="matrix(0.569, -0.822, 0.823, 0.568, 495.502, 1031.468)" fill="url(#linear-gradient-11)"/>
        <path id="Path_46" data-name="Path 46" d="M1440.371,463.2,1410.929,474.8l24.776,19.666Z" fill="url(#linear-gradient-12)"/>
        <path id="Path_47" data-name="Path 47" d="M894.247,815.078l-29.442,11.595,24.776,19.666Z" fill="#fff"/>
        <path id="Path_48" data-name="Path 48" d="M923.865,502.026l-22.684-22.04-7.77,30.639Z" fill="url(#linear-gradient-13)"/>
        <path id="Path_49" data-name="Path 49" d="M608.146,915.858,578.7,927.453l24.776,19.666Z" fill="url(#linear-gradient-14)"/>
        <g id="Group_17" data-name="Group 17">
          <path id="Path_50" data-name="Path 50" d="M1235.674,770.246h0a43.073,43.073,0,0,1-44.6-41.223l-2.61-67.361a43.064,43.064,0,0,1,41.279-44.541h0a43.073,43.073,0,0,1,44.6,41.223l2.61,67.361A43.064,43.064,0,0,1,1235.674,770.246Z" fill="#61266b"/>
          <path id="Path_51" data-name="Path 51" d="M1212.3,592.569l-9.653,455.452h37.916l19.32-206.583,19.15,206.583h33.209l-2.43-376.2-7.614-79.256Z" fill="#2e3b59"/>
          <path id="Path_52" data-name="Path 52" d="M1251.646,592.569V677.13h34.918l.367-83.534Z" fill="#c39e85"/>
          <path id="Path_53" data-name="Path 53" d="M1279.029,507.974s46.44,34.419,29.485,70.388l-10.319,14.226-33.43-.025S1251.646,510.9,1279.029,507.974Z" fill="#2e3b59"/>
          <rect id="Rectangle_5" data-name="Rectangle 5" width="85.943" height="153.24" rx="42.943" transform="translate(974.65 592.849)" fill="#2e3b59"/>
          <rect id="Rectangle_6" data-name="Rectangle 6" width="72.39" height="44.755" transform="translate(1079.806 782.563)" fill="#531f5b"/>
          <rect id="Rectangle_7" data-name="Rectangle 7" width="72.39" height="44.755" transform="translate(1075.784 782.563)" fill="#72297b"/>
          <path id="Path_54" data-name="Path 54" d="M1132.539,653.334l-4.1,27.412-3.4,101.817h-14.119l-1.733-99.062,3.01-45.272Z" fill="#f7b1b1"/>
          <path id="Path_55" data-name="Path 55" d="M1070.607,566.04a11.049,11.049,0,0,0-3.091.738h-.2a10.021,10.021,0,0,0-6.722,7.989c-.068.269-.068.469-.137.671-1.543,10.674,1.818,10.742,1.818,10.742h-23.328v-71.3l48-1.007S1093.4,556.842,1070.607,566.04Z" fill="#f7b1b1"/>
          <path id="Path_56" data-name="Path 56" d="M1099.872,731.1,1096.3,842.144l-35.438,3.635-5.145-40.285-4.377,40.285h-36.412s-9.87-98.452.213-114.676Z" fill="#1f2b44"/>
          <path id="Path_57" data-name="Path 57" d="M1096.3,842.144v61.537l-11.662,121.677h-24.043l6.083-121.677-5.815-57.9,19.712-8.279Z" fill="#1f2b44"/>
          <path id="Path_58" data-name="Path 58" d="M1051.337,845.779l-10.585,60.811-6.266,120.352H1010.6l3.008-120.352,1.316-60.811Z" transform="translate(0 -1.585)" fill="#1f2b44"/>
          <path id="Path_59" data-name="Path 59" d="M1084.636,1025.358v24.865s51.6,27.415,42.307,32.6-71.706.655-71.706.655l5.356-58.123Z" fill="#6a3615"/>
          <path id="Path_60" data-name="Path 60" d="M1010.6,1025.358s-4.985,40.279-13.948,45.873-8.766,12.5,6.26,14.084,34.047-2.488,34.047-2.488l-2.474-20.335v-37.133Z" fill="#6a3615"/>
          <path id="Path_61" data-name="Path 61" d="M1053.691,497.07l-8.157-12.965,17.431-1.678-2.372,13.278Z"/>
          <path id="Path_62" data-name="Path 62" d="M1038.969,527.741s-7.719-9.231-6.039,0,6.039,13.146,6.039,13.146Z" fill="#f7b1b1"/>
          <g id="Group_16" data-name="Group 16">
            <path id="Path_63" data-name="Path 63" d="M1114.571,586.2H996.653l6.26,202.239h100.465Z" fill="#77736f"/>
            <g id="Group_15" data-name="Group 15" clip-path="url(#clip-path-2)">
              <rect id="Rectangle_8" data-name="Rectangle 8" width="123.577" height="11.667" transform="translate(992.298 599.43)" fill="#bbb6b2"/>
              <rect id="Rectangle_9" data-name="Rectangle 9" width="123.577" height="11.667" transform="translate(992.298 631.655)" fill="#bbb6b2"/>
              <rect id="Rectangle_10" data-name="Rectangle 10" width="123.577" height="11.667" transform="translate(992.298 663.88)" fill="#bbb6b2"/>
              <rect id="Rectangle_11" data-name="Rectangle 11" width="123.577" height="11.667" transform="translate(992.298 696.106)" fill="#bbb6b2"/>
              <rect id="Rectangle_12" data-name="Rectangle 12" width="123.577" height="11.667" transform="translate(992.298 728.331)" fill="#bbb6b2"/>
              <rect id="Rectangle_13" data-name="Rectangle 13" width="123.577" height="11.667" transform="translate(992.298 760.556)" fill="#bbb6b2"/>
            </g>
          </g>
          <path id="Path_65" data-name="Path 65" d="M1072.98,586.2s-18.25,33.286-45.8,0Z" fill="#f7b1b1"/>
          <path id="Path_66" data-name="Path 66" d="M1017.035,653.334H981.114S975.781,586.2,996.653,586.2H1010.6Z" fill="#77736f"/>
          <path id="Path_67" data-name="Path 67" d="M1067.315,566.778a10.021,10.021,0,0,0-6.722,7.989c-.068.269-.068.469-.137.671-5.915-4.5-20.367-16.917-21.509-31.484v-3.088S1049.972,569.195,1067.315,566.778Z" fill="#77736f" opacity="0.21"/>
          <path id="Path_68" data-name="Path 68" d="M1053.131,513.878l-14.162,13.862V514.874Z" fill="#77736f"/>
          <path id="Path_69" data-name="Path 69" d="M1086.961,513.895s-10.068-16.643-22.806-18.042-23.07,7.273-25.186,19.021Z"/>
          <path id="Path_70" data-name="Path 70" d="M1110.854,653.334h21.685s23.62-67.129-17.969-67.133Z" fill="#77736f"/>
          <path id="Path_71" data-name="Path 71" d="M1010.6,586.2s3.872,66.572,2.455,90.928c0,0,10.9-29.993,6.564-90.95Z" fill="#2e3b59"/>
          <path id="Path_72" data-name="Path 72" d="M1105.836,586.2s5.412,61.308,3.994,85.665c0,0,9.361-24.73,5.026-85.687Z" fill="#2e3b59"/>
          <path id="Path_73" data-name="Path 73" d="M1076.334,530.154a2.416,2.416,0,1,0,2.416-2.413A2.414,2.414,0,0,0,1076.334,530.154Z" fill="#2e3b59"/>
          <ellipse id="Ellipse_9" data-name="Ellipse 9" cx="2.416" cy="2.413" rx="2.416" ry="2.413" transform="translate(1055.612 527.741)" fill="#2e3b59"/>
          <path id="Path_74" data-name="Path 74" d="M1294.109,548.99c-1.142,10.4-4.7,21.884-14.721,25.913a9.747,9.747,0,0,0-2.689.671h-.134a8.633,8.633,0,0,0-5.376,5.1,7.569,7.569,0,0,0-.539,1.881c-.068.268-.068.4-.134.6-1.346,9.332,6.384,10.137,6.384,10.137l5.041.135s-19.694,15.709-30.316-.874v-62.5c3.965-9.669,13.579-15.643,23.324-14.769,8.134.738,13.514,9.2,17.009,16.983C1292.9,536.57,1294.982,540.464,1294.109,548.99Z" fill="#f7b1b1"/>
          <path id="Path_75" data-name="Path 75" d="M1284.445,543.42a2.119,2.119,0,1,0,2.119-2.117A2.118,2.118,0,0,0,1284.445,543.42Z" fill="#2e3b59"/>
          <path id="Path_76" data-name="Path 76" d="M1266.266,543.42a2.119,2.119,0,1,0,2.12-2.117A2.118,2.118,0,0,0,1266.266,543.42Z" fill="#2e3b59"/>
          <path id="Path_77" data-name="Path 77" d="M993.437,653.334l6.979,54.439,23.271,90.455,12.927-4.613-16.994-88.264-2.585-52.017Z" fill="#f7b1b1"/>
          <path id="Path_78" data-name="Path 78" d="M1023.686,798.227l-11.075,19.61s19.79,6.683,21.875-4.785a124.166,124.166,0,0,0,2.128-19.438Z" fill="#f7b1b1"/>
          <path id="Path_79" data-name="Path 79" d="M1122.047,830h-5.237a4.843,4.843,0,0,1-4.831-4.825h0a4.842,4.842,0,0,1,4.831-4.825h5.237a4.842,4.842,0,0,1,4.833,4.825h0A4.843,4.843,0,0,1,1122.047,830Z" fill="#f7b1b1"/>
          <rect id="Rectangle_14" data-name="Rectangle 14" width="6.302" height="29.395" transform="translate(1136.122 788.441)" fill="#b378b2"/>
          <rect id="Rectangle_15" data-name="Rectangle 15" width="110.916" height="76.083" transform="translate(1217.515 722.144)" fill="#b26465"/>
          <path id="Path_80" data-name="Path 80" d="M1209.542,602.193s9.523,191.357,19.047,193.244,19.429,2.79,11.764-29.544c-6.532-27.547-4.214-163.7-4.214-163.7Z" fill="#c39e85"/>
          <path id="Path_81" data-name="Path 81" d="M1302.194,592.569s-6,199.16,3.522,201.045,22.715,4.613,19.394-37.345c-1.685-21.282-2.812-103.587-3.729-142.745-.274-11.672-8.783-20.954-19.187-20.954Z" fill="#c39e85"/>
          <rect id="Rectangle_16" data-name="Rectangle 16" width="35.285" height="15.838" transform="translate(1251.646 689.412)" fill="#4f648b"/>
          <path id="Path_82" data-name="Path 82" d="M1237.544,661.9l7.952-70.219-10.923.56Z" fill="#72297b"/>
          <path id="Path_83" data-name="Path 83" d="M1279.029,507.974s-44.965-21.922-59.707,59.516c0,0-2.212,31.516-20.64,38.073s-15.48,32.273,4.423,32.667,53.073-31.793,52.336-59.868S1268.71,506.888,1279.029,507.974Z" fill="#2e3b59"/>
          <path id="Path_84" data-name="Path 84" d="M1231.03,795.87s-2.142,5.184,0,5.6,9.916,0,9.916,0,1.89.222,1.26-3.245-.864-5.456-.864-5.456Z" fill="#f7b1b1"/>
          <path id="Path_85" data-name="Path 85" d="M1307.957,792.771s-3.037,8.282-.9,8.7,9.915,0,9.915,0,1.891.222,1.261-3.245-.864-5.456-.864-5.456Z" fill="#f7b1b1"/>
          <path id="Path_86" data-name="Path 86" d="M1276.565,575.574a8.633,8.633,0,0,0-5.376,5.1c-17.479-6.243-14.321-22.153-14.321-22.153C1259.759,574.164,1274.884,575.506,1276.565,575.574Z" fill="#77736f" opacity="0.21"/>
          <path id="Path_87" data-name="Path 87" d="M1230.077,1048.021s-1.444,26.177,13.01,30.372,3.53,9.867,3.53,9.867h-37.075v-40.24Z" fill="#6a3615"/>
          <path id="Path_88" data-name="Path 88" d="M1306.317,1048.021s-1.444,26.177,13.01,30.372,3.53,9.867,3.53,9.867h-37.075v-40.24Z" fill="#6a3615"/>
          <path id="Path_89" data-name="Path 89" d="M1076.334,550.282l-18.306-3.618S1059.4,558.807,1076.334,550.282Z" fill="#e175a6"/>
          <path id="Path_90" data-name="Path 90" d="M1284.445,558.522l-13.94,1.695S1280.206,573.625,1284.445,558.522Z" fill="#e175a6"/>
        </g>
      </g>
      <path id="Path_91" data-name="Path 91" d="M713.857,905.457c-.084-6.608,8.852-14.128,7.855-20.971-.959-6.582-11.615-11.2-13.564-17.791-1.892-6.39,4.558-16.107,1.6-22.318-3.011-6.333-14.721-7.641-18.613-13.317-3.971-5.79-.9-17.1-5.523-22.172-4.755-5.234-16.4-3.293-21.562-7.725-5.44-4.666-5.28-16.406-10.842-20.14-6.1-4.091-16.939.55-22.756-2.362-6.923-3.473-10.03-14.861-15.866-16.56-9.045-2.635-15.623,5.759-19.745,7.712l-.377.178c-4.891,2.337-10.746,5.477-7.422,13.426,1.893,4.532,13.252,5.63,16.818,11.657,2.781,4.7-2.134,14.74,1.3,20.236,3.016,4.8,14.28,4.9,17.579,10.24,3.042,4.922-1.976,14.938,1.144,20.269,2.959,5.056,14.19,5.656,17.081,11.038,2.793,5.208-2.942,14.829-.339,20.294,2.518,5.3,13.52,6.74,15.707,11.969,2.282,5.453-4.431,14.325-2.461,19.592,2.09,5.6,12.95,7.858,14.76,13.106,1.981,5.753-5.177,14.288-3.452,19.458,1.981,5.95,12.8,8.357,14.568,13.279,2.307,6.4-4.155,15.647-1.937,19.789,3.477,6.512,8.7,4.845,13.315,2.732.626-.288,1.246-.581,1.846-.868,4.1-1.941,14.786-1.258,18.628-9.448,2.518-5.369-4.085-15.027-2.232-22.318,1.56-6.135,12.12-11.146,12.931-18.258C723.042,919.718,713.953,912.447,713.857,905.457Z" opacity="0.4" fill="url(#linear-gradient-15)"/>
      <path id="Path_92" data-name="Path 92" d="M856.4,887.669c-.127-6.663,8.671-14.323,7.473-21.095-1.222-6.9-12.167-11.265-14.414-17.768-2.291-6.634,3.669-16.723.562-22.841-3.2-6.307-14.935-7.517-18.74-13.156-4.006-5.94-.736-17.217-5.107-22.291-4.793-5.56-16.479-3.955-21.315-8.3-5.753-5.181-5.726-16.984-10.9-20.167-8.022-4.938-16.592,1.416-21.086,2.207l-.411.072c-5.336.959-11.815,2.436-10.72,10.98.621,4.872,11.283,8.938,13.121,15.692,1.434,5.266-5.972,13.648-4.115,19.858,1.634,5.427,12.469,8.5,14.231,14.527,1.628,5.552-5.87,13.881-4.278,19.846,1.511,5.659,12.182,9.211,13.54,15.165,1.311,5.763-6.771,13.521-5.714,19.478,1.02,5.781,11.246,10.079,11.966,15.7.753,5.861-8.073,12.64-7.574,18.239.529,5.952,10.4,11.007,10.753,16.545.383,6.07-8.786,12.4-8.494,17.847.33,6.262,10.12,11.446,10.521,16.661.527,6.778-8.16,13.986-7.121,18.568,1.624,7.2,7.1,6.976,12.113,6.159.681-.11,1.356-.23,2.012-.348,4.466-.786,14.59,2.7,20.469-4.177,3.855-4.51.051-15.572,3.774-22.11,3.132-5.5,14.645-7.538,17.315-14.181,2.426-6.04-4.408-15.458-2.645-22.224,1.673-6.392,12.287-11.278,13.142-18.14C865.576,901.815,856.526,894.543,856.4,887.669Z" opacity="0.4" fill="url(#linear-gradient-16)"/>
      <path id="Path_93" data-name="Path 93" d="M964.039,855.365l-.319-.152c-3.487-1.652-9.052-8.754-16.7-6.524-4.937,1.437-7.565,11.071-13.421,14.009-4.921,2.463-14.093-1.463-19.252,2-4.705,3.159-4.569,13.09-9.172,17.038-4.369,3.748-14.217,2.107-18.239,6.535-3.91,4.293-1.315,13.857-4.673,18.756-3.293,4.8-13.2,5.909-15.747,11.265-2.5,5.255,2.957,13.475,1.356,18.881-1.649,5.579-10.663,9.483-11.475,15.051-.844,5.789,6.717,12.151,6.646,17.74-.081,5.914-7.772,12.065-7.15,17.535.688,6.017,9.621,10.256,10.94,15.446,1.568,6.167-4.018,14.339-1.887,18.881,3.25,6.929,12.292,6.351,15.758,7.992.508.243,1.033.492,1.563.735,3.9,1.788,8.322,3.2,11.264-2.311,1.877-3.505-3.59-11.331-1.639-16.742,1.5-4.164,10.648-6.2,12.325-11.233,1.46-4.375-4.6-11.594-2.92-16.46,1.53-4.439,10.718-6.351,12.486-11.087,1.667-4.456-4.012-11.962-2.082-16.574,1.85-4.424,11.156-5.639,13.286-10.126,2.2-4.623-2.649-12.761-.286-17.168,2.445-4.553,11.946-5.06,14.45-9.338,2.639-4.509-1.606-12.983.968-17.147,2.791-4.52,12.318-4.6,14.871-8.662,2.909-4.65-1.249-13.145,1.1-17.119,3.017-5.1,12.627-6.027,14.227-9.862C973.129,860,968.176,857.342,964.039,855.365Z" opacity="0.4" fill="url(#linear-gradient-17)"/>
      <path id="Path_94" data-name="Path 94" d="M916,1046.286s-85.5-89.863-188.857-89.953c-109.519-.1-179.691-83.819-224.235-103.014-65.3-28.139-162.415-12.109-219.344,71.322L179.752,1045.374Z" fill="url(#linear-gradient-18)"/>
    </g>
  </g>
</svg>
