<svg xmlns="http://www.w3.org/2000/svg" xmlns:xlink="http://www.w3.org/1999/xlink" width="1923" height="865" viewBox="0 0 1923 865">
    <defs>
        <linearGradient id="linear-gradient" x1=".489" x2=".528" y1="1.031" y2="-.083" gradientUnits="objectBoundingBox">
            <stop offset=".004" stop-color="#f05a28"/>
            <stop offset="1" stop-color="#faaf40"/>
        </linearGradient>
        <linearGradient id="linear-gradient-2" x2="1" y1=".5" y2=".5" gradientUnits="objectBoundingBox">
            <stop offset="0" stop-color="#7f4c84"/>
            <stop offset="1" stop-color="#73468c"/>
        </linearGradient>
        <linearGradient id="linear-gradient-8" x2="1" y1=".5" y2=".5" gradientUnits="objectBoundingBox">
            <stop offset="0" stop-color="#c46295"/>
            <stop offset="1" stop-color="#d04889"/>
        </linearGradient>
        <linearGradient id="linear-gradient-11" x1="-58.953" x2="-57.953" y1="-121.159" y2="-121.159" xlink:href="#linear-gradient-8"/>
        <linearGradient id="linear-gradient-12" x1="50.159" x2="50.959" y1="-4.158" y2="-3.642" gradientUnits="objectBoundingBox">
            <stop offset="0" stop-color="#009345"/>
            <stop offset="1" stop-color="#8bc53f"/>
        </linearGradient>
        <linearGradient id="linear-gradient-13" x1="40.11" x2="40.883" y1="-43.304" y2="-42.777" xlink:href="#linear-gradient-12"/>
        <linearGradient id="linear-gradient-14" x1="65.876" x2="66.676" y1="9.242" y2="9.757" xlink:href="#linear-gradient-2"/>
        <linearGradient id="linear-gradient-15" x1=".859" x2=".373" y1="1" y2=".082" xlink:href="#linear-gradient"/>
        <linearGradient id="linear-gradient-16" x1=".871" x2=".23" y1=".983" y2=".115" xlink:href="#linear-gradient"/>
        <linearGradient id="linear-gradient-17" x1="1.085" x2="-.13" y1=".222" y2=".795" xlink:href="#linear-gradient"/>
        <linearGradient id="linear-gradient-18" x1="1" x2="0" y1=".5" y2=".5" gradientUnits="objectBoundingBox">
            <stop offset="0" stop-color="#e59295"/>
            <stop offset="1" stop-color="#d04889"/>
        </linearGradient>
        <clipPath id="clip-path">
            <path id="Contain" fill="#fff9f3" d="M0 0H1923V865H0z"/>
        </clipPath>
        <clipPath id="clip-path-2">
            <path id="Path_64" d="M1114.571 586.2H996.653l6.26 202.239h100.465z" class="cls-2"/>
        </clipPath>
        <style>
            .cls-2,.cls-22{fill:#77736f}.cls-5{fill:url(#linear-gradient-2)}.cls-6{fill:#fff}.cls-7{fill:url(#linear-gradient-8)}.cls-13{fill:#2e3b59}.cls-14{fill:#c39e85}.cls-16{fill:#72297b}.cls-17{fill:#f7b1b1}.cls-18{fill:#1f2b44}.cls-19{fill:#6a3615}.cls-21{fill:#bbb6b2}.cls-22{opacity:.21}.cls-26{fill:#e175a6}
        </style>
    </defs>
    <g id="Clip" clip-path="url(#clip-path)">
        <g id="Vector_Smart_Object" transform="translate(124.248 -238.261)">
            <g id="Group_18">
                <g id="Group_14">
                    <path id="Path_45" fill="url(#linear-gradient)" d="M1428.218 1046.286c3.583-10.981 8.746-23.374 23.193-35.342 19.25-15.945 58.063-19.172 77.8-39.963 18.869-19.876 16.266-54.255 29.636-76.374 14.783-24.456 47.621-43.932 48.2-68.377.589-24.9-29.631-41.582-52.011-63.444-16.1-15.729-25.184-48.308-56.871-61.1-22.575-9.117-57.451 3.943-89.281-3.19-24.958-5.594-48.206-32.65-79.468-36.8-50.135-6.653-101.312 13.508-150.376 14.845-50.313 1.369-102.514-15.826-150.985-7.605-49.48 8.393-91.729 41.784-138.526 55.664-48.16 14.285-103.6 10.007-148.086 28.312-46.783 19.249-80.118 60.33-121.887 81.961-45.765 23.7-101.284 29.044-139.8 52.946-46.1 28.608-71.876 74.525-105.559 99.04-63.409 46.148-105.778 19.683-125.787 59.428z" opacity="0.4"/>
                </g>
                <ellipse id="Ellipse_1" cx="9.848" cy="9.835" class="cls-5" rx="9.848" ry="9.835" transform="translate(1142.348 445.26)"/>
                <ellipse id="Ellipse_2" cx="9.836" cy="9.848" class="cls-5" rx="9.836" ry="9.848" transform="matrix(.23 -.973 .973 .229 788.488 696.441)"/>
                <circle id="Ellipse_3" cx="9.842" cy="9.842" r="9.842" class="cls-5" transform="scale(1.001 1) rotate(-45 1426.778 -1538.492)"/>
                <ellipse id="Ellipse_4" cx="9.836" cy="9.848" class="cls-5" rx="9.836" ry="9.848" transform="matrix(.23 -.973 .973 .229 962.802 548.178)"/>
                <circle id="Ellipse_5" cx="9.842" cy="9.842" r="9.842" class="cls-6" transform="scale(1.001 1) rotate(-45 1702.746 -1240.567)"/>
                <circle id="Ellipse_6" cx="9.842" cy="9.842" r="9.842" class="cls-5" transform="scale(1.001 1) rotate(-45 1904.912 -1475.05)"/>
                <ellipse id="Ellipse_7" cx="9.836" cy="9.848" class="cls-5" rx="9.836" ry="9.848" transform="matrix(.23 -.973 .973 .229 1484.168 771.447)"/>
                <circle id="Ellipse_8" cx="9.842" cy="9.842" r="9.842" class="cls-6" transform="scale(1.001 1) rotate(-45 1383.773 -711.311)"/>
                <path id="Rectangle_1" d="M0 0H19.697V19.67H0z" class="cls-7" transform="translate(1415.802 598.875)"/>
                <path id="Rectangle_2" d="M0 0H19.697V19.67H0z" class="cls-7" transform="translate(906.152 598.875)"/>
                <path id="Rectangle_3" d="M0 0H19.697V19.671H0z" class="cls-7" transform="translate(1371.905 729.491)"/>
                <path id="Rectangle_4" fill="url(#linear-gradient-11)" d="M0 0H19.679V19.688H0z" transform="rotate(-55.32 1232.148 43.253) skewX(.08)"/>
                <path id="Path_46" fill="url(#linear-gradient-12)" d="M1440.371 463.2l-29.442 11.6 24.776 19.666z"/>
                <path id="Path_47" d="M894.247 815.078l-29.442 11.595 24.776 19.666z" class="cls-6"/>
                <path id="Path_48" fill="url(#linear-gradient-13)" d="M923.865 502.026l-22.684-22.04-7.77 30.639z"/>
                <path id="Path_49" fill="url(#linear-gradient-14)" d="M608.146 915.858L578.7 927.453l24.776 19.666z"/>
                <g id="Group_17">
                    <path id="Path_50" fill="#61266b" d="M1235.674 770.246a43.073 43.073 0 0 1-44.6-41.223l-2.61-67.361a43.064 43.064 0 0 1 41.279-44.541 43.073 43.073 0 0 1 44.6 41.223l2.61 67.361a43.064 43.064 0 0 1-41.279 44.541z"/>
                    <path id="Path_51" d="M1212.3 592.569l-9.653 455.452h37.916l19.32-206.583 19.15 206.583h33.209l-2.43-376.2-7.614-79.256z" class="cls-13"/>
                    <path id="Path_52" d="M1251.646 592.569v84.561h34.918l.367-83.534z" class="cls-14"/>
                    <path id="Path_53" d="M1279.029 507.974s46.44 34.419 29.485 70.388l-10.319 14.226-33.43-.025s-13.119-81.663 14.264-84.589z" class="cls-13"/>
                    <rect id="Rectangle_5" width="85.943" height="153.24" class="cls-13" rx="42.943" transform="translate(974.65 592.849)"/>
                    <path id="Rectangle_6" fill="#531f5b" d="M0 0H72.39V44.755H0z" transform="translate(1079.806 782.563)"/>
                    <path id="Rectangle_7" d="M0 0H72.39V44.755H0z" class="cls-16" transform="translate(1075.784 782.563)"/>
                    <path id="Path_54" d="M1132.539 653.334l-4.1 27.412-3.4 101.817h-14.119l-1.733-99.062 3.01-45.272z" class="cls-17"/>
                    <path id="Path_55" d="M1070.607 566.04a11.049 11.049 0 0 0-3.091.738h-.2a10.021 10.021 0 0 0-6.722 7.989c-.068.269-.068.469-.137.671-1.543 10.674 1.818 10.742 1.818 10.742h-23.328v-71.3l48-1.007s6.453 42.969-16.34 52.167z" class="cls-17"/>
                    <path id="Path_56" d="M1099.872 731.1l-3.572 111.044-35.438 3.635-5.145-40.285-4.377 40.285h-36.412s-9.87-98.452.213-114.676z" class="cls-18"/>
                    <path id="Path_57" d="M1096.3 842.144v61.537l-11.662 121.677h-24.043l6.083-121.677-5.815-57.9z" class="cls-18"/>
                    <path id="Path_58" d="M1051.337 845.779l-10.585 60.279-6.266 119.3H1010.6l3.008-119.3 1.316-60.279z" class="cls-18"/>
                    <path id="Path_59" d="M1084.636 1025.358v24.865s51.6 27.415 42.307 32.6-71.706.655-71.706.655l5.356-58.123z" class="cls-19"/>
                    <path id="Path_60" d="M1010.6 1025.358s-4.985 40.279-13.948 45.873-8.766 12.5 6.26 14.084 34.047-2.488 34.047-2.488l-2.474-20.335v-37.133z" class="cls-19"/>
                    <path id="Path_61" d="M1053.691 497.07l-8.157-12.965 17.431-1.678-2.372 13.278z"/>
                    <path id="Path_62" d="M1038.969 527.741s-7.719-9.231-6.039 0 6.039 13.146 6.039 13.146z" class="cls-17"/>
                    <g id="Group_16">
                        <path id="Path_63" d="M1114.571 586.2H996.653l6.26 202.239h100.465z" class="cls-2"/>
                        <g id="Group_15" clip-path="url(#clip-path-2)">
                            <path id="Rectangle_8" d="M0 0H123.577V11.667H0z" class="cls-21" transform="translate(992.298 599.43)"/>
                            <path id="Rectangle_9" d="M0 0H123.577V11.667H0z" class="cls-21" transform="translate(992.298 631.655)"/>
                            <path id="Rectangle_10" d="M0 0H123.577V11.667H0z" class="cls-21" transform="translate(992.298 663.88)"/>
                            <path id="Rectangle_11" d="M0 0H123.577V11.667H0z" class="cls-21" transform="translate(992.298 696.106)"/>
                            <path id="Rectangle_12" d="M0 0H123.577V11.667H0z" class="cls-21" transform="translate(992.298 728.331)"/>
                            <path id="Rectangle_13" d="M0 0H123.577V11.667H0z" class="cls-21" transform="translate(992.298 760.556)"/>
                        </g>
                    </g>
                    <path id="Path_65" d="M1072.98 586.2s-18.25 33.286-45.8 0z" class="cls-17"/>
                    <path id="Path_66" d="M1017.035 653.334h-35.921s-5.333-67.134 15.539-67.134h13.947z" class="cls-2"/>
                    <path id="Path_67" d="M1067.315 566.778a10.021 10.021 0 0 0-6.722 7.989c-.068.269-.068.469-.137.671-5.915-4.5-20.367-16.917-21.509-31.484v-3.088s11.025 28.329 28.368 25.912z" class="cls-22"/>
                    <path id="Path_68" d="M1053.131 513.878l-14.162 13.862v-12.866z" class="cls-2"/>
                    <path id="Path_69" d="M1086.961 513.895s-10.068-16.643-22.806-18.042-23.07 7.273-25.186 19.021z"/>
                    <path id="Path_70" d="M1110.854 653.334h21.685s23.62-67.129-17.969-67.133z" class="cls-2"/>
                    <path id="Path_71" d="M1010.6 586.2s3.872 66.572 2.455 90.928c0 0 10.9-29.993 6.564-90.95z" class="cls-13"/>
                    <path id="Path_72" d="M1105.836 586.2s5.412 61.308 3.994 85.665c0 0 9.361-24.73 5.026-85.687z" class="cls-13"/>
                    <path id="Path_73" d="M1076.334 530.154a2.416 2.416 0 1 0 2.416-2.413 2.414 2.414 0 0 0-2.416 2.413z" class="cls-13"/>
                    <ellipse id="Ellipse_9" cx="2.416" cy="2.413" class="cls-13" rx="2.416" ry="2.413" transform="translate(1055.612 527.741)"/>
                    <path id="Path_74" d="M1294.109 548.99c-1.142 10.4-4.7 21.884-14.721 25.913a9.747 9.747 0 0 0-2.689.671h-.134a8.633 8.633 0 0 0-5.376 5.1 7.569 7.569 0 0 0-.539 1.881c-.068.268-.068.4-.134.6-1.346 9.332 6.384 10.137 6.384 10.137l5.041.135s-19.694 15.709-30.316-.874v-62.5c3.965-9.669 13.579-15.643 23.324-14.769 8.134.738 13.514 9.2 17.009 16.983.942 4.303 3.024 8.197 2.151 16.723z" class="cls-17"/>
                    <path id="Path_75" d="M1284.445 543.42a2.119 2.119 0 1 0 2.119-2.117 2.118 2.118 0 0 0-2.119 2.117z" class="cls-13"/>
                    <path id="Path_76" d="M1266.266 543.42a2.119 2.119 0 1 0 2.12-2.117 2.118 2.118 0 0 0-2.12 2.117z" class="cls-13"/>
                    <path id="Path_77" d="M993.437 653.334l6.979 54.439 23.271 90.455 12.927-4.613-16.994-88.264-2.585-52.017z" class="cls-17"/>
                    <path id="Path_78" d="M1023.686 798.227l-11.075 19.61s19.79 6.683 21.875-4.785a124.166 124.166 0 0 0 2.128-19.438z" class="cls-17"/>
                    <path id="Path_79" d="M1122.047 830h-5.237a4.843 4.843 0 0 1-4.831-4.825 4.842 4.842 0 0 1 4.831-4.825h5.237a4.842 4.842 0 0 1 4.833 4.825 4.843 4.843 0 0 1-4.833 4.825z" class="cls-17"/>
                    <path id="Rectangle_14" fill="#b378b2" d="M0 0H6.302V29.395H0z" transform="translate(1136.122 788.441)"/>
                    <path id="Rectangle_15" fill="#b26465" d="M0 0H110.916V76.083H0z" transform="translate(1217.515 722.144)"/>
                    <path id="Path_80" d="M1209.542 602.193s9.523 191.357 19.047 193.244 19.429 2.79 11.764-29.544c-6.532-27.547-4.214-163.7-4.214-163.7z" class="cls-14"/>
                    <path id="Path_81" d="M1302.194 592.569s-6 199.16 3.522 201.045 22.715 4.613 19.394-37.345c-1.685-21.282-2.812-103.587-3.729-142.745-.274-11.672-8.783-20.954-19.187-20.954z" class="cls-14"/>
                    <path id="Rectangle_16" fill="#4f648b" d="M0 0H35.285V15.838H0z" transform="translate(1251.646 689.412)"/>
                    <path id="Path_82" d="M1237.544 661.9l7.952-70.219-10.923.56z" class="cls-16"/>
                    <path id="Path_83" d="M1279.029 507.974s-44.965-21.922-59.707 59.516c0 0-2.212 31.516-20.64 38.073s-15.48 32.273 4.423 32.667 53.073-31.793 52.336-59.868 13.269-71.474 23.588-70.388z" class="cls-13"/>
                    <path id="Path_84" d="M1231.03 795.87s-2.142 5.184 0 5.6 9.916 0 9.916 0 1.89.222 1.26-3.245-.864-5.456-.864-5.456z" class="cls-17"/>
                    <path id="Path_85" d="M1307.957 792.771s-3.037 8.282-.9 8.7 9.915 0 9.915 0 1.891.222 1.261-3.245-.864-5.456-.864-5.456z" class="cls-17"/>
                    <path id="Path_86" d="M1276.565 575.574a8.633 8.633 0 0 0-5.376 5.1c-17.479-6.243-14.321-22.153-14.321-22.153 2.891 15.643 18.016 16.985 19.697 17.053z" class="cls-22"/>
                    <path id="Path_87" d="M1230.077 1048.021s-1.444 26.177 13.01 30.372 3.53 9.867 3.53 9.867h-37.075v-40.24z" class="cls-19"/>
                    <path id="Path_88" d="M1306.317 1048.021s-1.444 26.177 13.01 30.372 3.53 9.867 3.53 9.867h-37.075v-40.24z" class="cls-19"/>
                    <path id="Path_89" d="M1076.334 550.282l-18.306-3.618s1.372 12.143 18.306 3.618z" class="cls-26"/>
                    <path id="Path_90" d="M1284.445 558.522l-13.94 1.695s9.701 13.408 13.94-1.695z" class="cls-26"/>
                </g>
            </g>
            <path id="Path_91" fill="url(#linear-gradient-15)" d="M713.857 905.457c-.084-6.608 8.852-14.128 7.855-20.971-.959-6.582-11.615-11.2-13.564-17.791-1.892-6.39 4.558-16.107 1.6-22.318-3.011-6.333-14.721-7.641-18.613-13.317-3.971-5.79-.9-17.1-5.523-22.172-4.755-5.234-16.4-3.293-21.562-7.725-5.44-4.666-5.28-16.406-10.842-20.14-6.1-4.091-16.939.55-22.756-2.362-6.923-3.473-10.03-14.861-15.866-16.56-9.045-2.635-15.623 5.759-19.745 7.712l-.377.178c-4.891 2.337-10.746 5.477-7.422 13.426 1.893 4.532 13.252 5.63 16.818 11.657 2.781 4.7-2.134 14.74 1.3 20.236 3.016 4.8 14.28 4.9 17.579 10.24 3.042 4.922-1.976 14.938 1.144 20.269 2.959 5.056 14.19 5.656 17.081 11.038 2.793 5.208-2.942 14.829-.339 20.294 2.518 5.3 13.52 6.74 15.707 11.969 2.282 5.453-4.431 14.325-2.461 19.592 2.09 5.6 12.95 7.858 14.76 13.106 1.981 5.753-5.177 14.288-3.452 19.458 1.981 5.95 12.8 8.357 14.568 13.279 2.307 6.4-4.155 15.647-1.937 19.789 3.477 6.512 8.7 4.845 13.315 2.732.626-.288 1.246-.581 1.846-.868 4.1-1.941 14.786-1.258 18.628-9.448 2.518-5.369-4.085-15.027-2.232-22.318 1.56-6.135 12.12-11.146 12.931-18.258.744-6.466-8.345-13.737-8.441-20.727z" opacity="0.4"/>
            <path id="Path_92" fill="url(#linear-gradient-16)" d="M856.4 887.669c-.127-6.663 8.671-14.323 7.473-21.095-1.222-6.9-12.167-11.265-14.414-17.768-2.291-6.634 3.669-16.723.562-22.841-3.2-6.307-14.935-7.517-18.74-13.156-4.006-5.94-.736-17.217-5.107-22.291-4.793-5.56-16.479-3.955-21.315-8.3-5.753-5.181-5.726-16.984-10.9-20.167-8.022-4.938-16.592 1.416-21.086 2.207l-.411.072c-5.336.959-11.815 2.436-10.72 10.98.621 4.872 11.283 8.938 13.121 15.692 1.434 5.266-5.972 13.648-4.115 19.858 1.634 5.427 12.469 8.5 14.231 14.527 1.628 5.552-5.87 13.881-4.278 19.846 1.511 5.659 12.182 9.211 13.54 15.165 1.311 5.763-6.771 13.521-5.714 19.478 1.02 5.781 11.246 10.079 11.966 15.7.753 5.861-8.073 12.64-7.574 18.239.529 5.952 10.4 11.007 10.753 16.545.383 6.07-8.786 12.4-8.494 17.847.33 6.262 10.12 11.446 10.521 16.661.527 6.778-8.16 13.986-7.121 18.568 1.624 7.2 7.1 6.976 12.113 6.159.681-.11 1.356-.23 2.012-.348 4.466-.786 14.59 2.7 20.469-4.177 3.855-4.51.051-15.572 3.774-22.11 3.132-5.5 14.645-7.538 17.315-14.181 2.426-6.04-4.408-15.458-2.645-22.224 1.673-6.392 12.287-11.278 13.142-18.14.818-6.6-8.232-13.872-8.358-20.746z" opacity="0.4"/>
            <path id="Path_93" fill="url(#linear-gradient-17)" d="M964.039 855.365l-.319-.152c-3.487-1.652-9.052-8.754-16.7-6.524-4.937 1.437-7.565 11.071-13.421 14.009-4.921 2.463-14.093-1.463-19.252 2-4.705 3.159-4.569 13.09-9.172 17.038-4.369 3.748-14.217 2.107-18.239 6.535-3.91 4.293-1.315 13.857-4.673 18.756-3.293 4.8-13.2 5.909-15.747 11.265-2.5 5.255 2.957 13.475 1.356 18.881-1.649 5.579-10.663 9.483-11.475 15.051-.844 5.789 6.717 12.151 6.646 17.74-.081 5.914-7.772 12.065-7.15 17.535.688 6.017 9.621 10.256 10.94 15.446 1.568 6.167-4.018 14.339-1.887 18.881 3.25 6.929 12.292 6.351 15.758 7.992.508.243 1.033.492 1.563.735 3.9 1.788 8.322 3.2 11.264-2.311 1.877-3.505-3.59-11.331-1.639-16.742 1.5-4.164 10.648-6.2 12.325-11.233 1.46-4.375-4.6-11.594-2.92-16.46 1.53-4.439 10.718-6.351 12.486-11.087 1.667-4.456-4.012-11.962-2.082-16.574 1.85-4.424 11.156-5.639 13.286-10.126 2.2-4.623-2.649-12.761-.286-17.168 2.445-4.553 11.946-5.06 14.45-9.338 2.639-4.509-1.606-12.983.968-17.147 2.791-4.52 12.318-4.6 14.871-8.662 2.909-4.65-1.249-13.145 1.1-17.119 3.017-5.1 12.627-6.027 14.227-9.862 2.812-6.724-2.141-9.382-6.278-11.359z" opacity="0.4"/>
            <path id="Path_94" fill="url(#linear-gradient-18)" d="M916 1046.286s-85.5-89.863-188.857-89.953c-109.519-.1-179.691-83.819-224.235-103.014-65.3-28.139-162.415-12.109-219.344 71.322l-103.812 120.733z"/>
        </g>
    </g>
</svg>
