<svg xmlns="http://www.w3.org/2000/svg" xmlns:xlink="http://www.w3.org/1999/xlink" width="1578" height="314" viewBox="0 0 1578 314">
    <defs>
        <linearGradient id="linear-gradient" x1=".837" x2=".013" y1=".702" y2="-.191" gradientUnits="objectBoundingBox">
            <stop offset="0" stop-color="#009345"/>
            <stop offset="1" stop-color="#8bc53f"/>
        </linearGradient>
        <linearGradient id="linear-gradient-2" x1="0" x2="1" y1=".5" y2=".5" xlink:href="#linear-gradient"/>
        <linearGradient id="linear-gradient-3" x1="4.373" x2="5.373" y1=".5" y2=".5" xlink:href="#linear-gradient"/>
        <linearGradient id="linear-gradient-4" x1="4.904" x2="5.904" y1=".5" y2=".5" xlink:href="#linear-gradient"/>
        <linearGradient id="linear-gradient-5" x2="1" y1=".5" y2=".5" gradientUnits="objectBoundingBox">
            <stop offset="0" stop-color="#76c594"/>
            <stop offset="1" stop-color="#8bc53f"/>
        </linearGradient>
        <linearGradient id="linear-gradient-7" x1="2.232" x2="2.829" y1="2.988" y2="2.988" xlink:href="#linear-gradient"/>
        <linearGradient id="linear-gradient-8" x1="2.282" x2="2.795" y1="3.276" y2="3.276" xlink:href="#linear-gradient"/>
        <clipPath id="clip-path">
            <path id="crop" fill="none" d="M0 0H280V269H0z" transform="translate(22.954 453.788)"/>
        </clipPath>
        <style>
            .cls-4{fill:url(#linear-gradient-2)}
        </style>
    </defs>
    <g id="Group_352" transform="translate(-131 -633)">
        <g id="Vector_Smart_Object" clip-path="url(#clip-path)" transform="translate(108.046 224.212)">
            <g id="Group_19">
                <path id="Path_95" fill="url(#linear-gradient)" d="M151.37 683.976c-.765 8.569-10.719 14.607-12.189 22-1.747 8.784 4.477 20.422 2.1 26.891-3.621 9.869-13.7 9.046-17.558 11.385-.567.346-1.151.7-1.741 1.046 8.821-193.978-90.76-249.737-90.76-249.737 3.886-2.353 10.087-12.469 18.612-9.292 5.5 2.046 8.43 15.769 14.955 19.953 5.483 3.508 15.7-2.085 21.45 2.847 5.242 4.5 5.091 18.645 10.219 24.268 4.869 5.338 15.841 3 20.324 9.307 4.356 6.115 1.464 19.737 5.206 26.714 3.669 6.838 14.708 8.415 17.546 16.046 2.784 7.484-3.3 19.191-1.513 26.891 1.838 7.946 11.882 13.507 12.786 21.437.94 8.246-7.484 17.307-7.406 25.268.094 8.423 8.662 17.184 7.969 24.976z"/>
                <path id="Path_96" d="M121.984 745.3c-4.35 2.546-9.273 4.554-12.551-3.292-2.091-4.992 4-16.138 1.825-23.845-1.669-5.93-11.864-8.831-13.732-16-1.627-6.23 5.122-16.515 3.254-23.445-1.705-6.323-11.942-9.046-13.913-15.791-1.856-6.346 4.471-17.038 2.32-23.607-2.061-6.3-12.431-8.031-14.8-14.423-2.453-6.585 2.952-18.176.319-24.453-2.723-6.484-13.31-7.207-16.1-13.3-2.94-6.423 1.79-18.492-1.079-24.422-3.109-6.438-13.726-6.553-16.57-12.338-3.241-6.623 1.392-18.722-1.229-24.383-3.362-7.262-14.069-8.584-15.853-14.046-3.133-9.576 2.386-13.361 7-16.176l.356-.216s99.574 55.756 90.753 249.737z" class="cls-4"/>
            </g>
            <g id="Group_20">
                <path id="Path_97" fill="url(#linear-gradient-3)" d="M134.536 713.885c1 11.238 14.058 19.158 15.987 28.852 2.292 11.521-5.871 26.784-2.758 35.268 4.749 12.943 17.962 11.864 23.028 14.93.743.454 1.509.918 2.284 1.372-11.569-254.4 119.033-327.531 119.033-327.531-5.1-3.087-13.229-16.353-24.41-12.186-7.215 2.683-11.056 20.681-19.613 26.169-7.191 4.6-20.593-2.734-28.132 3.733-6.875 5.9-6.678 24.454-13.4 31.828-6.385 7-20.775 3.934-26.654 12.207-5.714 8.02-1.92 25.886-6.828 35.036-4.813 8.969-19.29 11.036-23.012 21.044-3.651 9.815 4.322 25.17 1.984 35.268-2.411 10.421-15.584 17.715-16.769 28.116-1.233 10.814 9.815 22.7 9.712 33.139-.123 11.046-11.361 22.536-10.452 32.755z"/>
                <path id="Path_98" fill="url(#linear-gradient-4)" d="M173.076 794.307c5.706 3.339 12.162 5.972 16.461-4.317 2.742-6.547-5.247-21.165-2.394-31.273 2.189-7.778 15.56-11.581 18.009-20.983 2.134-8.172-6.717-21.66-4.267-30.749 2.236-8.292 15.662-11.864 18.247-20.711 2.434-8.323-5.864-22.345-3.043-30.961 2.7-8.262 16.3-10.532 19.416-18.915 3.216-8.636-3.872-23.839-.419-32.071 3.572-8.5 17.456-9.452 21.115-17.442 3.856-8.423-2.347-24.252 1.415-32.03 4.077-8.443 18-8.6 21.731-16.181 4.252-8.685-1.826-24.554 1.612-31.979 4.41-9.523 18.452-11.259 20.791-18.421 4.109-12.56-3.13-17.523-9.174-21.215l-.466-.283s-130.603 73.129-119.034 327.531z"/>
            </g>
        </g>
        <g id="Vector_Smart_Object-2" transform="translate(733.112 213.742)">
            <g id="Group_21">
                <path id="Path_99" fill="url(#linear-gradient-5)" d="M975.837 616.891c-.975 8.539-13.659 14.556-15.533 21.923-2.227 8.754 5.705 20.352 2.68 26.8-4.615 9.834-17.453 9.015-22.374 11.345-.722.345-1.466.7-2.219 1.042 11.241-193.306-115.653-248.872-115.653-248.872 4.952-2.345 12.852-12.426 23.717-9.26 7.01 2.039 10.741 15.714 19.057 19.884 6.987 3.5 20.009-2.077 27.334 2.837 6.68 4.484 6.488 18.581 13.022 24.184 6.2 5.32 20.185 2.99 25.9 9.275 5.551 6.094 1.865 19.67 6.633 26.622 4.676 6.815 18.742 8.386 22.359 15.99 3.547 7.459-4.2 19.125-1.927 26.8 2.342 7.919 15.141 13.461 16.292 21.364 1.2 8.217-9.536 17.247-9.436 25.181.111 8.394 11.031 17.12 10.148 24.885z"/>
                <path id="Path_100" d="M938.392 678c-5.544 2.537-11.816 4.538-15.993-3.281-2.664-4.974 5.1-16.082 2.327-23.762-2.127-5.91-15.118-8.8-17.5-15.944-2.073-6.209 6.526-16.458 4.146-23.364-2.173-6.3-15.218-9.015-17.728-15.737-2.364-6.324 5.7-16.979 2.956-23.525-2.626-6.278-15.84-8-18.865-14.373-3.125-6.561 3.762-18.113.407-24.368-3.47-6.462-16.961-7.182-20.515-13.253-3.747-6.4 2.28-18.428-1.374-24.338-3.962-6.416-17.49-6.531-21.115-12.3-4.131-6.6 1.773-18.657-1.566-24.3-4.284-7.236-17.928-8.554-20.2-14-3.992-9.544 3.041-13.315 8.914-16.12l.453-.215S949.633 484.694 938.392 678z" class="cls-4"/>
            </g>
            <g id="Group_22">
                <path id="Path_101" fill="url(#linear-gradient-7)" d="M944.224 626.339c2.685 4.387-1.084 11.883.745 16.046 2.174 4.948 10.187 7.509 11.134 11.661 1.445 6.334-4.914 10.66-6.379 13.565-.213.428-.434.867-.662 1.307-65.89-95.335-146.228-74.973-146.228-74.973 1.473-2.925 1.488-10.581 7.78-13.075 4.059-1.612 10.856 3.471 16.315 2.386 4.583-.915 8.676-8.326 13.941-8.7 4.8-.337 9.9 6.385 15.051 6.631 4.887.233 10.625-6 15.636-5.13 4.863.837 8.124 8.6 12.935 10.126 4.716 1.5 11.932-2.923 16.438-.663 4.421 2.217 5.062 10.566 8.961 13.352 4.021 2.876 12.1.793 15.555 4.1 3.591 3.438 1.853 11.639 4.822 15.345 3.145 3.922 11.512 4.034 13.956 8.022z"/>
                <path id="Path_102" fill="url(#linear-gradient-8)" d="M949.062 668.918c-1.682 3.232-3.9 6.479-8.755 4.323-3.089-1.369-3.518-9.46-7.654-12.066-3.18-2.008-10.375 1.4-14.128-1.1-3.265-2.169-2.982-10.161-6.649-12.546-3.346-2.176-10.5 1.333-14.161-.918-3.445-2.115-3.565-10.1-7.269-12.185-3.551-2-10.421 2.038-14.195.143-3.891-1.949-4.9-9.928-8.782-11.647-4.017-1.775-10.648 2.837-14.561 1.277-4.125-1.645-5.711-9.532-9.612-10.979-4.232-1.573-10.658 3.338-14.491 1.949-4.38-1.6-6.035-9.454-9.688-10.89-4.686-1.842-11.61 2.545-14.686.811-5.4-3.038-3.47-7.4-1.731-10.878l.135-.268s80.337-20.361 146.227 74.974z"/>
            </g>
        </g>
    </g>
</svg>
